<svg width="2462" height="1231" viewBox="0 0 2462 1231" fill="none" xmlns="http://www.w3.org/2000/svg">
<path d="M178 97.5L173.5 101C173.667 102.167 174.1 104.8 174.5 106C175 107.5 175.5 109.5 175.5 111.5C175.5 113.5 175.5 113 174.5 114C173.7 114.8 172.167 112.667 171.5 111.5C171 110.667 170 108.9 170 108.5C170 108.1 167.667 107 166.5 106.5C164.833 106 161.4 105 161 105C160.5 105 157.5 107.5 156.5 107.5C155.5 107.5 153 105 152.5 105C152 105 149 106 146.5 107.5C144 109 144.5 110.5 144.5 112.5C144.5 114.5 143 117 142.5 118C142 119 145.5 122.5 145.5 123.5C145.5 124.5 149 126 150.5 128C151.7 129.6 148.667 129.667 147 129.5L142.5 129L137 126L131.5 123.5L129 117L125.5 113L119.5 107.5L113 102.5C113.667 103.667 115 106.1 115 106.5C115 106.9 118.667 110.667 120.5 112.5L123 116.5L120.5 114L116.5 110.5L113 107.5L107 99.5L101.5 94L100 88V80.5L105 71.5H108.5L113.5 67L115 63.5L124 64.5H133L138 69.5L142.5 71.5H148L154 74L155 76.5L160.5 78.5L162.5 84.5L165 78.5L171.5 84L195.5 71.5H202.5L201.5 74L203.5 76.5L211.5 78.5L202 81.5L199 80.5L192.5 81L191.5 84.5L183 91V96.5L178 97.5Z" stroke="black"/>
</svg>
